<svg width="156" height="36" viewBox="0 0 156 36" fill="none" xmlns="http://www.w3.org/2000/svg">
<path d="M18 6C11.372 6 6 11.372 6 18C6 24.628 11.372 30 18 30C24.628 30 30 24.628 30 18C30 11.372 24.628 6 18 6ZM21.24 12.784C21.096 12.736 20.82 12.672 20.416 12.672C19.688 12.672 19.152 13.044 19.04 13.772L18.992 14.064H20.756L20.4 16.3H18.764L17.272 25.728H14.388L15.88 16.3H14.892L15.248 14.064H16.348L16.444 13.432C16.752 11.504 18.144 10.272 20.492 10.272C21.028 10.272 21.464 10.336 21.608 10.368L21.236 12.78L21.24 12.784Z" fill="black"/>
<path d="M41.0544 11.8227L41.2037 10.8563C41.6827 7.90833 43.8475 6.02454 47.4991 6.02454C48.3327 6.02454 49.0107 6.1224 49.2347 6.17133L48.6562 9.8594C48.4322 9.786 48.003 9.68815 47.3747 9.68815C46.2425 9.68815 45.4089 10.257 45.2347 11.3701L45.1601 11.8166H47.9034L47.3498 15.2355H44.8055L42.4852 29.6514H38L40.3203 15.2355H38.7838L39.3375 11.8166H41.0482L41.0544 11.8227Z" fill="#1D1D1B"/>
<path d="M55.0387 6.37305L52.1647 24.2079H47.6795L50.5535 6.37305H55.0387Z" fill="#1D1D1B"/>
<path d="M68.1084 24.2079H64.0525L64.1023 23.2416C64.152 22.7706 64.2765 22.4465 64.2765 22.4465H64.2267C63.4989 23.633 61.7322 24.5505 59.8908 24.5505C57.1226 24.5505 55.0262 22.5688 55.0262 19.1498C55.0262 14.3425 58.4289 11.474 62.0556 11.474C63.7912 11.474 65.3029 12.367 65.6575 13.529H65.7072C65.7072 13.529 65.6824 13.2049 65.7819 12.7339L66.0369 11.8165H70.0929L68.1022 24.2018L68.1084 24.2079ZM59.3185 18.5138C59.3185 19.9511 60.177 20.893 61.4336 20.893C62.9452 20.893 64.5066 19.6575 64.5066 17.5229C64.5066 15.9878 63.5486 15.1437 62.3667 15.1437C60.7306 15.1437 59.3185 16.5076 59.3185 18.5138Z" fill="#1D1D1B"/>
<path d="M85.1347 11.8226L77.6013 24.2813H74.6527L71.1006 11.8226H75.76C76.2639 14.0795 76.9419 16.8012 77.0414 18.4832C77.2405 18.159 78.0243 16.2813 78.5033 15.3884L80.4691 11.8226H85.1284H85.1347Z" fill="#1D1D1B"/>
<path d="M82.8952 25.7921C83.0694 25.8654 83.6479 26.0673 84.4068 26.0673C85.8687 26.0673 86.8018 25.2722 87.5048 24.2813L84.3571 11.8226H89.2466L89.8749 16.0306C90.0739 17.419 90.3041 18.8073 90.3539 20.2141C90.6089 19.8899 91.9153 16.6239 92.245 16.0306L94.2356 11.8226H99.1003L92.2263 24.3547C90.1859 28.1468 87.6665 29.8287 84.8174 29.9755C84.1642 30 83.6604 29.9755 83.2311 29.9021C82.777 29.8532 82.4224 29.8043 82.2731 29.7064L82.9014 25.7921H82.8952Z" fill="#1D1D1B"/>
<path d="M104.481 11.8226L104.407 13.0887C104.407 13.4618 104.282 13.7309 104.183 13.8838H104.232C104.886 12.844 106.248 11.9021 107.66 11.6269C108.064 11.529 108.494 11.4801 108.892 11.529C110.403 11.6024 111.536 12.3242 111.94 13.7309C113.203 12.367 114.789 11.474 116.375 11.474C119.019 11.474 120.456 13.107 119.902 16.4771L118.671 24.2018H114.186L115.343 17.0459C115.492 16.104 115.193 15.4373 114.335 15.4373C112.494 15.4373 111.94 17.0948 111.666 18.9541L110.808 24.2079H106.298L107.455 17.052C107.604 16.1345 107.355 15.4434 106.472 15.4434C104.631 15.4434 104.077 17.0764 103.778 18.9602L102.92 24.2141H98.4097L100.4 11.8287H104.481V11.8226Z" fill="#1D1D1B"/>
<path d="M135.286 17.1009C135.286 21.3088 131.709 24.5566 127.324 24.5566C123.747 24.5566 121.451 22.2018 121.451 18.9602C121.451 14.7278 125.003 11.4801 129.414 11.4801C132.966 11.4801 135.286 13.8348 135.286 17.1009ZM131.031 17.5474C131.031 16.0856 130.098 15.1437 128.842 15.1437C127.206 15.1437 125.719 16.4832 125.719 18.4893C125.719 19.951 126.627 20.8929 127.909 20.8929C129.52 20.8929 131.031 19.5535 131.031 17.5474Z" fill="#1D1D1B"/>
<path d="M140.599 25.3456C140.095 28.3914 138.079 30 134.907 30C133.924 30 133.115 29.8532 132.866 29.7003L133.47 25.8838C133.644 25.9572 134.048 26.0306 134.428 26.0306C135.361 26.0306 136.039 25.5596 136.219 24.4709L138.26 11.8165H142.77L140.605 25.3394L140.599 25.3456ZM141.457 6C142.77 6 143.523 6.7156 143.523 7.90826C143.523 9.49235 142.39 10.581 140.723 10.581C139.411 10.581 138.633 9.84098 138.633 8.64832C138.633 7.03976 139.79 6 141.457 6Z" fill="#1D1D1B"/>
<path d="M150.247 11.8226L148.257 24.208H143.747L145.737 11.8226H150.247ZM148.935 6C150.247 6 151 6.7156 151 7.90826C151 9.49235 149.868 10.581 148.201 10.581C146.888 10.581 146.11 9.84098 146.11 8.64832C146.11 7.03976 147.268 6 148.935 6Z" fill="#1D1D1B"/>
</svg>
